<svg xmlns="http://www.w3.org/2000/svg" viewBox="0 0 206 88"><defs><style>.a{fill:#fff;}.b{fill:none;}</style></defs><title>brand_logo-small-i</title><path class="a" d="M26.54,60.28c0,.79-.39,1.25-1.58,1.25H19.69a1.3,1.3,0,0,1-1.25-1.25V26.35a1.25,1.25,0,0,1,1.25-1.25h2.57a1.18,1.18,0,0,1,1.12.79l.86,2.17a11.39,11.39,0,0,1,8.49-3.62c7.24,0,12.7,6.25,12.7,13.82,0,7.77-5.92,13.82-13,13.82a13.14,13.14,0,0,1-5.86-1.45ZM31.34,45a6.47,6.47,0,0,0,6.39-6.71c0-3.69-2.5-6.71-6.12-6.71a5.66,5.66,0,0,0-5.4,4v7.9A8.51,8.51,0,0,0,31.34,45Z"/><path class="a" d="M47.38,26.35a1.25,1.25,0,0,1,1.25-1.25h2.5a1.2,1.2,0,0,1,1.18.86l.92,2.57a9.19,9.19,0,0,1,7.44-4.08c3.09,0,5.86,1,5.07,2.63l-2.44,4.28a1.17,1.17,0,0,1-1.51.59,7.16,7.16,0,0,0-1.91-.39,5.33,5.33,0,0,0-4.67,2.7V50.18c0,.92-.59,1.25-1.51,1.25H48.64a1.3,1.3,0,0,1-1.25-1.25Z"/><path class="a" d="M99.45,32H97.21A1.24,1.24,0,0,1,96,30.76V26.35a1.2,1.2,0,0,1,1.18-1.25h2.24V19.79a1.29,1.29,0,0,1,1.25-1.25l5.4-.07a1.24,1.24,0,0,1,1.18,1.25V25.1h4.8a1.21,1.21,0,0,1,1.25,1.25v4.41A1.25,1.25,0,0,1,112.08,32h-4.8V42.54c0,1.84,1,2.11,2,2.11a10.61,10.61,0,0,0,3.23-.72,1,1,0,0,1,1.45.72l1.32,4.15a1.19,1.19,0,0,1-.72,1.58,24.78,24.78,0,0,1-7.83,1.71c-5.07,0-7.31-3.16-7.31-8.49Z"/><path class="a" d="M128.4,24.44a12.07,12.07,0,0,1,12.31,12.24,16.15,16.15,0,0,1-.13,1.78,1.27,1.27,0,0,1-1.25,1.12H122.48a6.28,6.28,0,0,0,6.32,5.73,9.16,9.16,0,0,0,5.13-1.65c.66-.39,1.25-.53,1.71,0l2.7,3.09a1.08,1.08,0,0,1-.07,1.71,14.17,14.17,0,0,1-9.81,3.62c-7.9,0-13.49-6.25-13.49-13.82S120.57,24.44,128.4,24.44ZM133,35a4.92,4.92,0,0,0-4.8-4.48A5.19,5.19,0,0,0,123.07,35Z"/><path class="a" d="M156.39,24.44a12,12,0,0,1,9.74,4.67,1.25,1.25,0,0,1-.33,1.84l-3,2.9c-.59.53-1.18.2-1.65-.2a6.2,6.2,0,0,0-4.54-2.11,6.61,6.61,0,0,0-6.45,6.71A6.51,6.51,0,0,0,156.53,45c2.83,0,4.08-1.38,5.27-2.5a1.23,1.23,0,0,1,1.65-.2l2.83,2.44c.66.53.92,1.19.46,1.84a11.73,11.73,0,0,1-10.4,5.53,13.89,13.89,0,0,1-14-13.82A14.08,14.08,0,0,1,156.39,24.44Z"/><path class="a" d="M171.6,32h-2.24a1.24,1.24,0,0,1-1.18-1.25V26.35a1.2,1.2,0,0,1,1.18-1.25h2.24V19.79a1.29,1.29,0,0,1,1.25-1.25l5.4-.07a1.24,1.24,0,0,1,1.18,1.25V25.1h4.8a1.21,1.21,0,0,1,1.25,1.25v4.41A1.25,1.25,0,0,1,184.23,32h-4.8V42.54c0,1.84,1,2.11,2,2.11a10.61,10.61,0,0,0,3.23-.72,1,1,0,0,1,1.45.72l1.32,4.15a1.19,1.19,0,0,1-.72,1.58,24.78,24.78,0,0,1-7.83,1.71c-5.07,0-7.31-3.16-7.31-8.49Z"/><path class="a" d="M5.31,18.47H1.19A1.19,1.19,0,0,1,0,17.28V1.19A1.19,1.19,0,0,1,1.19,0H17.28a1.19,1.19,0,0,1,1.19,1.19V5.31A1.19,1.19,0,0,1,17.28,6.5H7.69A1.19,1.19,0,0,0,6.5,7.69v9.6A1.19,1.19,0,0,1,5.31,18.47Z"/><path class="a" d="M17.28,80H1.19A1.19,1.19,0,0,1,0,78.81V62.72a1.19,1.19,0,0,1,1.19-1.19H5.31A1.19,1.19,0,0,1,6.5,62.72v9.6A1.19,1.19,0,0,0,7.69,73.5h9.6a1.19,1.19,0,0,1,1.19,1.19v4.12A1.19,1.19,0,0,1,17.28,80Z"/><path class="a" d="M204.81,80H188.72a1.19,1.19,0,0,1-1.19-1.19V74.69a1.19,1.19,0,0,1,1.19-1.19h9.6a1.19,1.19,0,0,0,1.19-1.19v-9.6a1.19,1.19,0,0,1,1.19-1.19h4.12A1.19,1.19,0,0,1,206,62.72v16.1A1.19,1.19,0,0,1,204.81,80Z"/><path class="a" d="M204.81,18.47h-4.12a1.19,1.19,0,0,1-1.19-1.19V7.69a1.19,1.19,0,0,0-1.19-1.19h-9.6a1.19,1.19,0,0,1-1.19-1.19V1.19A1.19,1.19,0,0,1,188.72,0h16.09A1.19,1.19,0,0,1,206,1.19V17.28A1.19,1.19,0,0,1,204.81,18.47Z"/><path class="a" d="M95,38.37a.58.58,0,0,0-.65.1l-1.89,1.76a.26.26,0,0,1-.3,0l-3.06-1.69a.58.58,0,0,0-.85.41,8.23,8.23,0,0,1-6.95,6.76.58.58,0,0,0-.43.29l-1.75,3.17a.58.58,0,0,0,.08.68l2.46,2.64a.59.59,0,0,0,.43.19h.08A15.23,15.23,0,0,0,95.35,38.94.57.57,0,0,0,95,38.37Z"/><path class="a" d="M77.41,49.91a.25.25,0,0,1,0-.3l1.69-3.06a.58.58,0,0,0-.41-.85,8.23,8.23,0,0,1-6.76-6.95.59.59,0,0,0-.29-.43l-3.17-1.75a.58.58,0,0,0-.68.08l-2.65,2.47a.59.59,0,0,0-.18.51A15.23,15.23,0,0,0,78.71,52.78h.05a.57.57,0,0,0,.51-.32.58.58,0,0,0-.1-.66Z"/><path class="a" d="M65.18,36.71a.59.59,0,0,0,.26.06.58.58,0,0,0,.4-.16l1.89-1.76a.25.25,0,0,1,.3,0l3.06,1.69a.58.58,0,0,0,.85-.41,8.23,8.23,0,0,1,6.95-6.76.58.58,0,0,0,.43-.29l1.75-3.17A.58.58,0,0,0,81,25.2l-2.46-2.64a.58.58,0,0,0-.51-.18A15.23,15.23,0,0,0,64.86,36.14.57.57,0,0,0,65.18,36.71Z"/><path class="a" d="M82.8,25.16a.26.26,0,0,1,0,.3h0l-1.69,3.06a.58.58,0,0,0,.41.85,8.23,8.23,0,0,1,6.76,6.95.59.59,0,0,0,.29.43l3.17,1.75a.58.58,0,0,0,.68-.08L95.1,36a.59.59,0,0,0,.18-.51A15.23,15.23,0,0,0,81.51,22.3a.57.57,0,0,0-.57.32.58.58,0,0,0,.1.65Z"/><path class="a" d="M116.32,83.39c-.06-.47.06-.6.52-.65l1.52-.16,2.12-.2,2.12-.19,2.12-.16,2.12-.14,2.12-.12,2.12-.09,2.12-.07,2.12-.05,2.12,0h2.13l2.13,0,2.13,0,2.13.07,2.13.08,1.27.06c.67,0,.84.22.78.89h0c-.05.66-.25.82-.91.76L148,83.33l-2.1-.18-2.1-.14-2.11-.12-2.11-.09-2.11,0-2.11,0h-2.11l-2.11,0-2.11.07-2.11.1-2.11.14-2.1.17-2.1.2-2.1.24-1.51.2c-.46.06-.6,0-.65-.5Z"/><path class="a" d="M91.06,78.07c-.16.32-.33.63-.47,1a26.77,26.77,0,0,0-1.52,4.32,1.72,1.72,0,0,0-.05.31c0,.41,0,.43-.45.52a1.66,1.66,0,0,1-.56.05.81.81,0,0,1-.7-1.13c.61-1.73,1.24-3.46,1.85-5.19.41-1.18.8-2.38,1.19-3.57,0-.09,0-.18.08-.31-.22.05-.42.11-.62.15a3.87,3.87,0,0,1-.7.09.34.34,0,0,0-.38.28c-.22.7-.43,1.41-.69,2.09a6.47,6.47,0,0,1-1.67,2.43,3.21,3.21,0,0,1-.62.44,1,1,0,0,1-1,0,5.78,5.78,0,0,1-1.08-.71,3.28,3.28,0,0,1-.49-.77l-.11.08a13.19,13.19,0,0,1-2.25,1.52,1.42,1.42,0,0,1-1.15.12,8.49,8.49,0,0,1-1.36-.56,2.19,2.19,0,0,1-1-1.5A2.89,2.89,0,0,1,77.37,76a10.17,10.17,0,0,1,2.1-3.43,4.35,4.35,0,0,1,1.24-1.14,2.76,2.76,0,0,1,2.46,0,.92.92,0,0,1,.48.82,2.18,2.18,0,0,1-.19,1.1,6.44,6.44,0,0,1-1.37,1.93,12.73,12.73,0,0,1-2.82,2.47.38.38,0,0,0,.05.72.79.79,0,0,0,.57,0,9.08,9.08,0,0,0,1.46-.79c.61-.43,1.17-.93,1.74-1.4a.56.56,0,0,0,.15-.26,9,9,0,0,1,1.56-2.89c.22-.28.42-.58.66-.85a2.14,2.14,0,0,1,1.33-.8,1.52,1.52,0,0,1,1.56.88c.17.54.3.58.86.57h1.52c0-.2.09-.39.13-.58a.81.81,0,0,1,.83-.77,1.32,1.32,0,0,1,.28,0c.57.06.73.24.65.81,0,.28-.13.55-.19.83,0,.08,0,.17,0,.26l.08,0c.24-.25.46-.51.71-.75s.45-.37.68-.54a1,1,0,0,1,1-.1,6,6,0,0,1,1,.55A1.19,1.19,0,0,1,96.27,74a11.28,11.28,0,0,1-1.63,4.33,5.77,5.77,0,0,1-.82,1,1,1,0,0,1-1,.16,2.31,2.31,0,0,1-1.32-.86l-.37-.48Zm-4.22-5-.11.06a.69.69,0,0,0-.12.12,12,12,0,0,0-1.87,3.33,2,2,0,0,0-.08,1.33,1.61,1.61,0,0,0,.27.37A1.51,1.51,0,0,0,85.3,78c.34-.51.68-1,1-1.55a5.46,5.46,0,0,0,.83-2.69A.7.7,0,0,0,86.85,73Zm7.66.66-.08,0-.1,0-.28.23a10.73,10.73,0,0,0-1.71,2,1,1,0,0,0-.18.91,5.3,5.3,0,0,0,.39,1c.12.23.23.22.4,0a3,3,0,0,0,.22-.33,10.19,10.19,0,0,0,1-2.54C94.3,74.53,94.4,74.11,94.51,73.69Zm-12.6-1.17c-.76.11-2.79,2.7-2.72,3.46a3.41,3.41,0,0,0,.27-.21c.33-.32.66-.64,1-1A7.23,7.23,0,0,0,81.8,72.9,2.27,2.27,0,0,0,81.91,72.53Z"/><path class="a" d="M135.83,77.2,136,77a17.84,17.84,0,0,0,2-3.33c.18-.39.27-.45.7-.41a2.34,2.34,0,0,1,.69.13.57.57,0,0,1,.32.82,1.67,1.67,0,0,1-.15.3,9.89,9.89,0,0,0-1.17,3.37,3.13,3.13,0,0,0,0,.65c.29,0,.4-.22.53-.38a5.14,5.14,0,0,0,.9-2.09,12.92,12.92,0,0,0,.22-1.57,2.44,2.44,0,0,0-.13-.66c-.05-.26-.13-.51-.16-.77a.39.39,0,0,1,.32-.44,1.21,1.21,0,0,1,1.27.2,1.7,1.7,0,0,0,1.44.35c.5,0,1-.12,1.49-.18a1.26,1.26,0,0,1,.95.16c.71-.39,1.37-.79,2.07-1.11a3.62,3.62,0,0,1,1.3-.34,1.58,1.58,0,0,1,1.37.78.73.73,0,0,0,.46.34,1,1,0,0,1,.24.09.36.36,0,0,1,.15.6c-.21.29-.43.57-.63.87a7.44,7.44,0,0,0-1.35,3.17,2.62,2.62,0,0,0,.24,1.76c.12.21.08.39-.13.43a2.41,2.41,0,0,1-.91.08c-.54-.1-.75-.31-.86-1.25a9.65,9.65,0,0,1,0-1l-.72.68a5.7,5.7,0,0,1-2,1.34,1.11,1.11,0,0,1-1.12-.15l-.65-.5a1.24,1.24,0,0,1-.44-1.32,6.32,6.32,0,0,1,1.13-2.39c.21-.29.43-.57.64-.87a4.15,4.15,0,0,1-2.39.14,2.11,2.11,0,0,0,0,.29,6,6,0,0,1-.67,3.11,6.78,6.78,0,0,1-1,1.56,1.28,1.28,0,0,1-1.4.42,8,8,0,0,1-1.2-.49.75.75,0,0,1-.45-.67.7.7,0,0,1,0-.28l-.74.63a1,1,0,0,1-1,.27,6.58,6.58,0,0,1-1.14-.56.66.66,0,0,1-.22-.82c.29-1,.58-1.93.91-2.88a17.6,17.6,0,0,0,.85-2.9.53.53,0,0,1,.47-.49,3.45,3.45,0,0,1,1,0c.46.1.53.42.34.84-.29.63-.54,1.29-.77,1.94-.29.82-.55,1.64-.82,2.47,0,.08,0,.17-.06.26Zm8,1.05a1.3,1.3,0,0,0,.72-.41c.46-.4.92-.81,1.39-1.21a10.52,10.52,0,0,0,2.63-2.9,3,3,0,0,1,.26-.33c.09-.11.27-.23.14-.37s-.29,0-.4,0c-.66.39-1.33.76-2,1.2a8.22,8.22,0,0,0-2.66,3.18A1,1,0,0,0,143.81,78.26Z"/><path class="a" d="M100.48,78.4c-.36.34-.7.68-1.07,1a1.84,1.84,0,0,1-2.49,0,1.49,1.49,0,0,1-.74-1.51,6.06,6.06,0,0,1,.25-1.21,35.92,35.92,0,0,1,2.89-6.07,15.43,15.43,0,0,0,1.16-2.23,1,1,0,0,1,1.08-.71,2.53,2.53,0,0,0,.34,0,.75.75,0,0,1,.75,1,1.58,1.58,0,0,1-.22.46c-.89,1.4-1.8,2.79-2.69,4.19a19.25,19.25,0,0,0-1.65,3.5,7.86,7.86,0,0,0-.27,1.32.53.53,0,0,0,0,.17c0,.26.13.31.33.15s.52-.47.78-.7l1.13-1a.3.3,0,0,0,.09-.16,6.72,6.72,0,0,1,1.31-2.89,16.78,16.78,0,0,1,1.75-2,2.56,2.56,0,0,1,2.81-.39.94.94,0,0,1,.56.85,2.16,2.16,0,0,1-.19,1.1,7,7,0,0,1-1.53,2.12,12.19,12.19,0,0,1-2.77,2.36.24.24,0,0,0-.09.36.62.62,0,0,0,.77.35,4.31,4.31,0,0,0,1.51-.81c.52-.39,1-.82,1.52-1.23a5.88,5.88,0,0,1,.66-.44.64.64,0,0,1,.67,0,.57.57,0,0,1,.14.87A13.21,13.21,0,0,1,104,79.55a1.85,1.85,0,0,1-1.65.16,3.28,3.28,0,0,1-1.53-.87C100.67,78.71,100.58,78.55,100.48,78.4ZM102.13,76a.6.6,0,0,0,.15-.07,10,10,0,0,0,2.49-3,1.62,1.62,0,0,0,.07-.35C104.06,72.7,102.11,75.19,102.13,76Z"/><path class="a" d="M119.52,72.92c.1-.19.19-.38.3-.55a.86.86,0,0,1,.9-.45.94.94,0,0,1,.88.69.48.48,0,0,1-.2.55,1.81,1.81,0,0,0-.64,1.09c-.27.93-.58,1.85-.86,2.78-.1.33-.17.68-.25,1a4.37,4.37,0,0,0,0,.48,1.45,1.45,0,0,0,.25-.17,16.72,16.72,0,0,0,2.93-3.93c.08-.17.14-.35.22-.52a.8.8,0,0,1,1.11-.39l.3.15a.53.53,0,0,1,.29.81c-.21.49-.44,1-.63,1.48a10.74,10.74,0,0,0-.64,2.81,2.41,2.41,0,0,0,.19,1.22c.1.23.19.49,0,.69a.61.61,0,0,1-.7,0,5,5,0,0,1-.78-.4A.44.44,0,0,1,122,80c-.06-.4-.1-.8-.14-1.2a2.13,2.13,0,0,1,0-.33l-.06,0-.23.22c-.36.32-.71.65-1.08,1a1,1,0,0,1-1,.18,6.93,6.93,0,0,1-1-.48.9.9,0,0,1-.4-.77,5.45,5.45,0,0,1,.27-1.84l.75-2.64-.21,0a6.46,6.46,0,0,1-.84.12.36.36,0,0,0-.39.31c-.28.84-.54,1.69-.89,2.5a5.9,5.9,0,0,1-1.59,2.11,1.45,1.45,0,0,1-1.89.21A2.22,2.22,0,0,1,112,77.32a4.54,4.54,0,0,1,.43-2.12,12.11,12.11,0,0,1,1.94-2.94,2.07,2.07,0,0,1,1.33-.79,1.53,1.53,0,0,1,1.53.87c.17.55.3.59.88.57Zm-3.8.09a2,2,0,0,0-.28.29c-.42.64-.85,1.27-1.23,1.93a5,5,0,0,0-.72,2,1.32,1.32,0,0,0,.17.87c.11.17.23.18.37,0a1,1,0,0,0,.14-.17c.32-.5.66-1,1-1.5a5.64,5.64,0,0,0,.88-2.85A.7.7,0,0,0,115.72,73Z"/><path class="a" d="M58,78.5c-.35.33-.69.67-1.06,1a1.74,1.74,0,0,1-2.45-.3,1.22,1.22,0,0,1-.21-.57,5.15,5.15,0,0,1,.3-2l.72-2.51-.28.06a6.61,6.61,0,0,1-.81.1c-.21,0-.29.09-.35.28-.27.81-.52,1.63-.84,2.43a6,6,0,0,1-1.58,2.15,1.48,1.48,0,0,1-2,.23,2.21,2.21,0,0,1-1.22-2.07,4.34,4.34,0,0,1,.48-2.19,11,11,0,0,1,.76-1.35A15.8,15.8,0,0,1,50.78,72a1.57,1.57,0,0,1,1.89-.42,1.12,1.12,0,0,1,.7.69c0,.08.07.15.1.23a.59.59,0,0,0,.65.39c.53,0,1.06,0,1.6-.05.08,0,.15-.27.23-.42a.88.88,0,0,1,.85-.55,1,1,0,0,1,.93.57.48.48,0,0,1-.13.66,2,2,0,0,0-.67,1.17c-.31,1.06-.66,2.11-1,3.16a10,10,0,0,0-.19,1l.08,0a1,1,0,0,0,.19-.14,18,18,0,0,0,2.82-3.71c.11-.23.21-.47.31-.7a.8.8,0,0,1,1.16-.42l.2.1c.49.24.54.44.32,1A21.84,21.84,0,0,0,60,76.77a15.94,15.94,0,0,0-.38,2A2.21,2.21,0,0,0,59.81,80c.1.23.18.49,0,.69a.61.61,0,0,1-.7,0,5.16,5.16,0,0,1-.77-.4.45.45,0,0,1-.18-.27c-.07-.35-.11-.7-.15-1.06a3,3,0,0,1,0-.46ZM51.9,73a2.27,2.27,0,0,0-.27.26,12.18,12.18,0,0,0-1.51,2.51,8.89,8.89,0,0,0-.44,1.45,1.12,1.12,0,0,0,.16.87c.09.15.21.19.35.07a1.06,1.06,0,0,0,.18-.21c.32-.5.66-1,1-1.5a5.57,5.57,0,0,0,.86-2.83A.71.71,0,0,0,51.9,73Z"/><path class="a" d="M153.8,78.27l-.27.18c-.19.14-.38.28-.58.41a1.89,1.89,0,0,1-2.4-.46,1.14,1.14,0,0,1-.15-.64,9.34,9.34,0,0,1,.64-2.83c.32-.93.67-1.84,1-2.76a.75.75,0,0,1,.85-.55,3,3,0,0,1,.5.09.63.63,0,0,1,.48.91,1.12,1.12,0,0,1-.16.33,6.54,6.54,0,0,0-1,2.15c-.24.72-.45,1.44-.66,2.16a3.4,3.4,0,0,0-.07.46l.07.05a3.92,3.92,0,0,0,.7-.49,16.85,16.85,0,0,0,2.51-2.94c.23-.4.4-.83.59-1.25.06-.12.1-.24.16-.36a.5.5,0,0,1,.67-.27l.55.13a.64.64,0,0,1,.52.88,1.72,1.72,0,0,1-.24.51,12.32,12.32,0,0,0-1.7,3.56l-.7,1.94a.94.94,0,0,0,.13.09c.39.19.44.36.21.73s-.58.86-.82,1.32a13.38,13.38,0,0,0-1.19,3.76,1.93,1.93,0,0,1-.44,1,1,1,0,0,1-.45.27,2.86,2.86,0,0,1-.73.07.68.68,0,0,1-.75-.79,4.16,4.16,0,0,1,.31-1.22c.35-.79.76-1.56,1.14-2.34a6.42,6.42,0,0,0,.33-.84c.3-1,.59-1.93.89-2.89,0-.11.06-.23.1-.35Z"/><path class="a" d="M72,78c-.12.21-.22.36-.29.52a26.36,26.36,0,0,0-1.74,4.75c0,.18,0,.37-.09.56s-.08.22-.15.24a2.31,2.31,0,0,1-.76.16.81.81,0,0,1-.77-1.14c.59-1.69,1.2-3.37,1.8-5.06a40.12,40.12,0,0,0,1.63-5.29l.09-.42a.81.81,0,0,1,.84-.76h.11c.69,0,.93.28.79.95-.07.32-.15.63-.23,1l.07,0,.21-.2c.4-.36.79-.72,1.2-1.07a1,1,0,0,1,1-.11,6.23,6.23,0,0,1,1,.54,1.19,1.19,0,0,1,.4,1.28,11.28,11.28,0,0,1-1.58,4.26,6.46,6.46,0,0,1-.86,1,.94.94,0,0,1-1,.17,2.3,2.3,0,0,1-1.33-.85C72.25,78.4,72.13,78.23,72,78Zm3.37-4.34-.12,0L75,73.8a9.76,9.76,0,0,0-2,2.31.72.72,0,0,0-.11.35,2.29,2.29,0,0,0,.45,1.4c.1.14.22.14.32,0A3.31,3.31,0,0,0,74,77.5a12,12,0,0,0,1.19-3.19C75.25,74.1,75.28,73.89,75.33,73.66Z"/><path class="a" d="M127.68,73.87c.18-.13.31-.23.46-.31a13.36,13.36,0,0,1,1.28-.72,1.72,1.72,0,0,1,1.85.31.54.54,0,0,1,.19.63.71.71,0,0,1-.58.56.8.8,0,0,1-.39,0,1,1,0,0,0-.86.09,7.17,7.17,0,0,0-3.2,3.05c-.22.44-.33.94-.52,1.4a2.81,2.81,0,0,1-.41.72.56.56,0,0,1-.77.07,2.55,2.55,0,0,1-.43-.41.87.87,0,0,1-.1-1.07.73.73,0,0,1,0-.08,12,12,0,0,0,1.53-3.81c.09-.28.15-.56.22-.85a.73.73,0,0,0,0-.62.26.26,0,0,1,.14-.38,1.19,1.19,0,0,1,1.21,0,.88.88,0,0,1,.38.72A6.12,6.12,0,0,1,127.68,73.87Z"/><path class="a" d="M63.85,73.87l.31-.21a14.9,14.9,0,0,1,1.52-.86,1.64,1.64,0,0,1,1.74.33.53.53,0,0,1,.19.68.69.69,0,0,1-.63.52,1,1,0,0,1-.36-.05.88.88,0,0,0-.76.07,7.2,7.2,0,0,0-3.27,3.1c-.22.43-.32.92-.51,1.37a2.86,2.86,0,0,1-.4.73.56.56,0,0,1-.79.07,2.77,2.77,0,0,1-.44-.43.85.85,0,0,1-.1-1,1.23,1.23,0,0,1,.11-.2,7,7,0,0,0,1.07-2.38c.22-.74.43-1.49.64-2.23a.65.65,0,0,0-.05-.57c-.09-.15,0-.29.12-.39a1.15,1.15,0,0,1,1.23,0,1.35,1.35,0,0,1,.37.67A3.54,3.54,0,0,1,63.85,73.87Z"/><path class="a" d="M108.12,77.5a.94.94,0,0,1,.79.41c.49.67.54.51,0,1.27l-1.7,2.57a1,1,0,0,1-1.51.31.55.55,0,0,1-.21-.64,2.09,2.09,0,0,1,.13-.25L107.42,78C107.57,77.73,107.73,77.45,108.12,77.5Z"/><rect class="b" width="206" height="88"/></svg>