<svg xmlns="http://www.w3.org/2000/svg" viewBox="0 0 40 20"><defs><style>.a{fill:#fe0000;}.b{fill:#000095;}.c{fill:#fff;}.d{opacity:0.15;}</style></defs><title>flag_tw</title><rect class="a" width="30" height="20"/><rect class="b" width="15" height="10"/><path class="c" d="M8.5,5l-1,3.75L6.5,5l1-3.75M7.5,6l3.75-1L7.5,4,3.75,5"/><path class="c" d="M8.366,5.5,5.625,8.248,6.634,4.5,9.375,1.752M7,5.866l3.748,1.009L8,4.134,4.252,3.125"/><path class="c" d="M8,5.866,4.252,6.875,7,4.134l3.748-1.009M6.634,5.5,9.375,8.248,8.366,4.5,5.625,1.752"/><circle class="b" cx="7.5" cy="5" r="2.125"/><circle class="c" cx="7.5" cy="5" r="1.875"/><g class="d"><path d="M29,1V19H1V1H29m1-1H0V20H30V0Z"/></g></svg>