<svg xmlns="http://www.w3.org/2000/svg" viewBox="0 0 40 20"><defs><style>.a{fill:#de2910;}.b{fill:#ffde00;}.c{opacity:0.15;}</style></defs><title>flag_cn</title><rect class="a" width="30" height="20"/><polygon class="b" points="5 2 6.763 7.427 2.147 4.073 7.853 4.073 3.237 7.427 5 2"/><polygon class="b" points="9.143 2.514 10.391 1.08 10.224 2.975 9.246 1.343 10.996 2.088 9.143 2.514"/><polygon class="b" points="11.01 4.141 12.718 3.304 11.829 4.985 11.56 3.102 12.884 4.467 11.01 4.141"/><polygon class="b" points="11.038 6.725 12.939 6.657 11.442 7.83 11.964 6.001 12.616 7.787 11.038 6.725"/><polygon class="b" points="9.219 8.375 10.999 9.046 9.165 9.55 10.353 8.064 10.265 9.964 9.219 8.375"/><g class="c"><path d="M29,1V19H1V1H29m1-1H0V20H30V0Z"/></g></svg>