<svg xmlns="http://www.w3.org/2000/svg" viewBox="0 0 36 36"><defs><style>.a{fill:#d2741e;}.b{fill:none;}</style></defs><title>icon_gr-authorised</title><path class="a" d="M21.61,11.54v2.51a.63.63,0,0,1-.63.62H15.63a.63.63,0,0,1-.63-.62V11.54a.63.63,0,0,1,.63-.62h.94V0H20V10.92H21A.63.63,0,0,1,21.61,11.54ZM36,15V34.41A1.6,1.6,0,0,1,34.41,36H1.59A1.6,1.6,0,0,1,0,34.41V15a1.6,1.6,0,0,1,1.59-1.59H13.95v1.84a.53.53,0,0,0,.53.53h7.66a.53.53,0,0,0,.53-.53V13.39H34.41A1.6,1.6,0,0,1,36,15ZM17.77,19.47a2,2,0,0,0-2-2H5.61a2,2,0,0,0-2,2v12.4H5.29V30.5a3.44,3.44,0,0,1,3.44-3.43h4a3.44,3.44,0,0,1,3.44,3.43v1.37h1.63Zm14.29,3.74a.64.64,0,0,0-.19-.45l-.9-.9a.64.64,0,0,0-.9,0l-4.35,4.35-1.95-2a.64.64,0,0,0-.9,0l-.9.9a.64.64,0,0,0,0,.9l2.4,2.39.9.9a.64.64,0,0,0,.9,0l.9-.9,4.8-4.79A.64.64,0,0,0,32.06,23.21ZM10.72,20.5a2.95,2.95,0,1,0,2.94,3A2.95,2.95,0,0,0,10.72,20.5Z"/><rect class="b" width="36" height="36"/></svg>