<svg xmlns="http://www.w3.org/2000/svg" viewBox="0 0 36 36"><defs><style>.a{fill:#d2741e;}.b{fill:none;}</style></defs><title>icon_gr-equipment</title><path class="a" d="M31,17.77V13.29a.75.75,0,0,0-.58-.73L26.73,12a15.6,15.6,0,0,0-.82-2c.68-.94,1.4-1.82,2.11-2.76a.83.83,0,0,0,.17-.46c0-.68-2.86-3.29-3.49-3.87a.78.78,0,0,0-.51-.19.74.74,0,0,0-.48.17L20.84,5.06A11.93,11.93,0,0,0,19,4.31L18.47.61A.75.75,0,0,0,17.75,0h-4.5a.77.77,0,0,0-.73.58A24.37,24.37,0,0,0,12,4.31a12.59,12.59,0,0,0-1.86.78L7.31,2.91a.91.91,0,0,0-.51-.17c-.7,0-3.41,2.93-3.9,3.58a.74.74,0,0,0-.17.48.9.9,0,0,0,.17.48c.77.92,1.5,1.82,2.18,2.78a11,11,0,0,0-.77,1.84l-3.75.58a.76.76,0,0,0-.56.73V17.7a.7.7,0,0,0,.58.7L4.26,19a12.88,12.88,0,0,0,.85,2c-.7.94-1.43,1.84-2.13,2.76a.82.82,0,0,0-.17.46c0,.7,2.86,3.29,3.49,3.87a.78.78,0,0,0,.51.19.7.7,0,0,0,.48-.17l2.86-2.15a11.94,11.94,0,0,0,1.82.75l.56,3.7a.75.75,0,0,0,.73.6h4.5a.77.77,0,0,0,.73-.58A24.23,24.23,0,0,0,19,26.65a10.55,10.55,0,0,0,1.07-.38l-2.9-2.9a8.09,8.09,0,1,1,6.17-6.16l2.91,2.91a9.69,9.69,0,0,0,.4-1l3.75-.58a.75.75,0,0,0,.56-.73m4.17,13.4L21.64,17.65A6.52,6.52,0,0,0,14,9.15a.38.38,0,0,0-.18.64l3.73,3.73a.38.38,0,0,1,.1.35L17,16.73a.38.38,0,0,1-.3.3l-2.89.59a.38.38,0,0,1-.35-.1L9.79,13.8a.38.38,0,0,0-.64.18,6.51,6.51,0,0,0,8.49,7.67L31.16,35.17a2.83,2.83,0,0,0,4-4"/><rect class="b" width="36" height="36"/></svg>