<svg xmlns="http://www.w3.org/2000/svg" viewBox="0 0 36 36"><defs><style>.a{fill:#d2741e;}.b{fill:none;}</style></defs><title>icon_gr-exclusion</title><path class="a" d="M20.38,28.25a2.46,2.46,0,1,1,2.46-2.46A2.45,2.45,0,0,1,20.38,28.25ZM35.09,25.8a2.46,2.46,0,1,0-2.47,2.45A2.45,2.45,0,0,0,35.09,25.8Zm.9-6.71q0,3.26,0,6.52a1.34,1.34,0,0,1,0,.14,1.11,1.11,0,0,1-.34.67,3.07,3.07,0,0,0-1.08-3,2.91,2.91,0,0,0-2.3-.68A3,3,0,0,0,30,24.17a3,3,0,0,0-.3,2.64H23.3a3.08,3.08,0,0,0-1.24-3.58,3,3,0,0,0-3.3,0,3.08,3.08,0,0,0-1.29,3.61H13.12a4.55,4.55,0,0,1-.72-.1l-2.51-.43L8.58,26a3.2,3.2,0,0,1,0-.76h6.17c0-.08,0-.15,0-.21q0-2.52,0-5a1,1,0,0,1,0-.25.61.61,0,0,1,.62-.45h.94v-.21q0-5.25,0-10.5a1.42,1.42,0,0,1,0-.21A.73.73,0,0,1,17,7.76a.76.76,0,0,1,.85.43,1.5,1.5,0,0,1,.07.33,1,1,0,0,1,0,.15V21.5h.35c.39,0,.29.05.4-.29L22,10.69a1.59,1.59,0,0,1,1.13-1.12,1.75,1.75,0,0,1,.47-.06h7.15a1.47,1.47,0,0,1,1.48,1.16c0,.2,0,.41.07.61l.16,1.5.15,1.43c.05.48.11,1,.16,1.43s.1,1,.15,1.43c0,.24.05.47.08.71a.72.72,0,0,0,0,.08h1.72a1.26,1.26,0,0,1,1.2.91A1.16,1.16,0,0,1,36,19.08Zm-4.13-1.21c0-.1,0-.19,0-.27s0-.29,0-.43L31.68,16l-.16-1.45-.12-1.16-.16-1.48c0-.33-.07-.66-.1-1a.33.33,0,0,0-.34-.31H23.66a.48.48,0,0,0-.54.39L20.9,18a.27.27,0,0,0,0,.23q.84,1.58,1.67,3.17a.22.22,0,0,0,.23.13h4.57c.16,0,.16,0,.22-.15.32-.78.64-1.58,1-2.35a1.8,1.8,0,0,1,1.74-1.13h1.55ZM4.34,4.06,0,0V1.27L4.34,5.32V8.54L0,4.49V5.76L4.34,9.81V13L0,9v1.27l4.34,4.05v3.22L0,13.46v1.27l4.34,4.05V22L0,17.94v1.27l4.34,4.05v3.22L0,22.43v1.27l4.34,4.05V31L0,26.91v1.27l4.34,4.05v3.22L0,31.4v1.27L3.58,36H5.36V0h-1Z"/><rect class="b" width="36" height="36"/></svg>