<svg xmlns="http://www.w3.org/2000/svg" viewBox="0 0 36 36"><defs><style>.a{fill:#d2741e;}.b{fill:none;}</style></defs><title>icon_gr-loto</title><path class="a" d="M7.9,11.92,11.7,11A10.48,10.48,0,0,0,10.89,15v3.42a2.86,2.86,0,0,0-2.79,2.86v5.75l-1.73,3.7a.8.8,0,0,1-.71.42l-.24,0a.71.71,0,0,1-.51-.83L8.24,16.69,1.38,18.4a.82.82,0,0,1-.2,0,.83.83,0,0,1-.52-.19.66.66,0,0,1-.22-.66L5,.54A.75.75,0,0,1,5.7,0h5.54A.74.74,0,0,1,12,.71a.69.69,0,0,1-.08.3ZM27,15a5.59,5.59,0,1,0-11.17,0v4.19H27ZM22.8,32c.53,0,.86-1,.6-1.75l-.69-2L22.28,27a2,2,0,1,0-1.71,0l-.43,1.25-.69,2c-.26.78.07,1.75.6,1.75H22.8m9.1-12.77a2.1,2.1,0,0,1,2.1,2.1V33.91A2.1,2.1,0,0,1,31.9,36H11a2.1,2.1,0,0,1-2.1-2.09V21.33a2.1,2.1,0,0,1,2.1-2.1h.7V15a9.78,9.78,0,1,1,19.55,0v4.19h.7"/><rect class="b" width="36" height="36"/></svg>