<svg xmlns="http://www.w3.org/2000/svg" viewBox="0 0 36 36"><defs><style>.a{fill:#d2741e;}.b{fill:none;}</style></defs><title>icon_gr-confined</title><path class="a" d="M23.11,4.3,18.85,8.55l-.8.8a.57.57,0,0,1-.8,0l-.8-.8L14.33,6.42a.57.57,0,0,1,0-.8l.8-.8a.57.57,0,0,1,.8,0l1.73,1.73L21.51,2.7a.57.57,0,0,1,.8,0l.8.8a.57.57,0,0,1,0,.8M21.74,19.51a3.9,3.9,0,1,0-3.9,4,3.94,3.94,0,0,0,3.9-4M36,11.71H0V14H5.52a1.15,1.15,0,0,0,.08.34l5.64,13.85a3.29,3.29,0,0,0,0,.48V36H24.57V28.65c0-.08,0-.16,0-.23l5.07-3.54a1.12,1.12,0,0,0,.42-.59,1.15,1.15,0,0,0-.09-1.1l-4.54-6.77a1.1,1.1,0,0,0-1.55-.3l-1.3.91a1.15,1.15,0,0,0-.29,1.58l3.06,4.56L22,25.48a3.09,3.09,0,0,0-.61-.06H14.24L9.58,14H36Z"/><rect class="b" width="36" height="36"/></svg>