<svg xmlns="http://www.w3.org/2000/svg" viewBox="0 0 36 36"><defs><style>.a{fill:#d2741e;}.b{fill:none;}</style></defs><title>icon_gr-suspended</title><path class="a" d="M33.72,17.52a1,1,0,0,1,1.07,1V35a1,1,0,0,1-1.07,1h-4V17.52h4M16.82,21.58a.46.46,0,0,0-.46.47l.21,5.67a.49.49,0,0,0,.49.47h1.89a.49.49,0,0,0,.49-.47l.21-5.67a.46.46,0,0,0-.46-.47H16.82m2.6,8.27a.48.48,0,0,0-.47-.47H17.06a.48.48,0,0,0-.47.47V31.5a.48.48,0,0,0,.47.47h1.89a.48.48,0,0,0,.47-.47ZM28.56,36H7.07V17.52H28.56ZM5.94,17.52H2.28a1,1,0,0,0-1.07,1V35a1,1,0,0,0,1.07,1H5.94Zm23.67,0a.56.56,0,0,0-.25-.23l-8.14-3.75a4.34,4.34,0,0,0,1.59-2.47,1.11,1.11,0,0,0-.56-1.22,1.05,1.05,0,0,0-1.32.28,2.35,2.35,0,0,0-.3.59,2,2,0,0,1-3.34.63,1.46,1.46,0,0,1-.09-1.83,8.8,8.8,0,0,1,.89-1.05,4.46,4.46,0,0,0,1.32-3c0-.12.06-.15.16-.14h1.26a.8.8,0,0,0,.79-.5l1.11-2.4a1,1,0,0,0,0-.89l-.54-1A.91.91,0,0,0,21.33,0H14.69a.89.89,0,0,0-.82.44c-.21.36-.41.73-.6,1.11a.93.93,0,0,0,0,.84c.37.81.74,1.62,1.12,2.42a.79.79,0,0,0,.78.5h1c.08,0,.14,0,.14.11a1.21,1.21,0,0,1-.17.74c-.24.33-.48.68-.74,1a4.65,4.65,0,0,0-1.16,3,4,4,0,0,0,1,2.81l.16.18L6.27,17.29a.56.56,0,0,0-.25.23H8.46l7.88-3.63a4.33,4.33,0,0,0,3,.48,4.28,4.28,0,0,0,.67-.17l7.2,3.31Z"/><rect class="b" width="36" height="36"/></svg>