<svg xmlns="http://www.w3.org/2000/svg" viewBox="0 0 355 62" width="355" height="62"><defs><style>.cls-1{fill:#fff;}</style></defs><title>Asset 2</title><g id="Layer_2" data-name="Layer 2"><g id="Layer_1-2" data-name="Layer 1"><path class="cls-1" d="M220.44,50.78c-.19-1.51.18-1.95,1.68-2.1l4.92-.52,6.84-.65,6.84-.6,6.85-.51,6.85-.46,6.86-.39,6.86-.3L275,45l6.87-.17,6.87-.08h6.87l6.87.06,6.87.14,6.87.21,6.87.26,4.12.19c2.16.1,2.71.72,2.54,2.88h0c-.17,2.14-.79,2.66-2.93,2.44l-4.07-.41L316,50l-6.8-.46-6.81-.38c-2.27-.1-4.54-.2-6.82-.28l-6.82-.16-6.82-.07-6.82,0c-2.27,0-4.55.09-6.82.14l-6.82.24-6.82.33q-3.41.2-6.81.44l-6.8.56-6.79.65-6.78.78-4.88.63c-1.49.2-1.93-.16-2.12-1.63Z"/><path class="cls-1" d="M138.75,33.56c-.51,1-1.06,2-1.53,3.09a86.57,86.57,0,0,0-4.91,14,5.55,5.55,0,0,0-.16,1c-.09,1.32-.12,1.39-1.44,1.69a5.38,5.38,0,0,1-1.8.18,2.62,2.62,0,0,1-2.28-3.65c2-5.61,4-11.19,6-16.8,1.34-3.83,2.58-7.69,3.86-11.53.09-.28.15-.58.26-1-.72.18-1.36.36-2,.48a12.51,12.51,0,0,1-2.26.29,1.09,1.09,0,0,0-1.22.92c-.7,2.27-1.38,4.55-2.23,6.77a20.93,20.93,0,0,1-5.41,7.85,10.37,10.37,0,0,1-2,1.42,3.36,3.36,0,0,1-3.34.13,18.68,18.68,0,0,1-3.5-2.29,10.61,10.61,0,0,1-1.58-2.48,2.36,2.36,0,0,0-.37.24,42.67,42.67,0,0,1-7.27,4.92,4.59,4.59,0,0,1-3.73.38,27.47,27.47,0,0,1-4.38-1.8c-1.91-1-2.6-2.92-3.15-4.85a9.35,9.35,0,0,1,.18-5.58c1.38-4.25,3.93-7.76,6.78-11.1a14.06,14.06,0,0,1,4-3.69A8.94,8.94,0,0,1,113.2,12c1.1.46,1.39,1.56,1.54,2.65a7.05,7.05,0,0,1-.63,3.56c-.94,2.46-2.71,4.33-4.42,6.24a41.18,41.18,0,0,1-9.13,8,1.23,1.23,0,0,0,.18,2.32,2.56,2.56,0,0,0,1.84.09,29.37,29.37,0,0,0,4.72-2.56c2-1.39,3.77-3,5.63-4.54a1.82,1.82,0,0,0,.48-.83,29,29,0,0,1,5-9.36c.72-.91,1.37-1.88,2.14-2.74a6.93,6.93,0,0,1,4.29-2.59c1.69-.2,4.39.77,5,2.84.54,1.74,1,1.87,2.78,1.84,1.61,0,3.22,0,4.9,0,.14-.65.29-1.26.41-1.88a2.62,2.62,0,0,1,2.67-2.49,4.28,4.28,0,0,1,.91,0c1.86.2,2.35.78,2.1,2.62-.12.9-.41,1.78-.61,2.67-.06.27-.08.56-.11.84l.26.16c.76-.81,1.49-1.66,2.3-2.42s1.47-1.19,2.22-1.76a3.13,3.13,0,0,1,3.3-.34,19.53,19.53,0,0,1,3.28,1.79c1.48,1,1.47,2.6,1.26,4.14a36.49,36.49,0,0,1-5.28,14,18.67,18.67,0,0,1-2.65,3.14c-.87.9-2,.74-3.11.5a7.47,7.47,0,0,1-4.28-2.8c-.41-.51-.8-1-1.19-1.57ZM125.11,17.27a2.09,2.09,0,0,0-.34.18,2.22,2.22,0,0,0-.39.38,38.84,38.84,0,0,0-6,10.78,6.53,6.53,0,0,0-.26,4.3,5.2,5.2,0,0,0,.87,1.21,4.88,4.88,0,0,0,1.16-.92c1.11-1.64,2.21-3.29,3.19-5A17.65,17.65,0,0,0,126,19.49,2.26,2.26,0,0,0,125.11,17.27Zm24.78,2.15-.27-.11a1.81,1.81,0,0,0-.31.16c-.31.24-.62.49-.92.75a34.69,34.69,0,0,0-5.53,6.43,3.39,3.39,0,0,0-.59,2.94,17.15,17.15,0,0,0,1.27,3.1c.38.74.76.71,1.31,0a9.58,9.58,0,0,0,.72-1.05,33,33,0,0,0,3.27-8.2C149.23,22.12,149.55,20.76,149.89,19.42Zm-40.73-3.78c-2.45.35-9,8.73-8.81,11.19a11,11,0,0,0,.88-.69c1.07-1,2.14-2.08,3.19-3.14a23.38,23.38,0,0,0,4.39-6.13A7.33,7.33,0,0,0,109.16,15.64Z"/><path class="cls-1" d="M283.52,30.77c.19-.22.39-.44.57-.67a57.69,57.69,0,0,0,6.57-10.76c.57-1.26.88-1.45,2.27-1.34a7.56,7.56,0,0,1,2.22.43,1.85,1.85,0,0,1,1,2.64,5.4,5.4,0,0,1-.48,1c-2.16,3.32-2.93,7.13-3.77,10.91a10.12,10.12,0,0,0,0,2.09c.94-.05,1.31-.7,1.71-1.23a16.63,16.63,0,0,0,2.93-6.75,41.8,41.8,0,0,0,.71-5.07,7.89,7.89,0,0,0-.41-2.13c-.17-.83-.42-1.65-.51-2.49a1.27,1.27,0,0,1,1-1.42c1.46-.39,2.87-.55,4.11.64s3,1.3,4.64,1.14,3.21-.39,4.82-.58a4.08,4.08,0,0,1,3.06.53c2.29-1.25,4.43-2.54,6.68-3.59A11.7,11.7,0,0,1,324.9,13a5.12,5.12,0,0,1,4.42,2.52,2.37,2.37,0,0,0,1.48,1.11,3.07,3.07,0,0,1,.76.3,1.17,1.17,0,0,1,.48,2c-.67.95-1.39,1.86-2,2.82A24.08,24.08,0,0,0,325.66,32a8.48,8.48,0,0,0,.77,5.69c.4.67.24,1.25-.42,1.39a7.8,7.8,0,0,1-2.94.24c-1.75-.33-2.44-1-2.79-4.06a31.2,31.2,0,0,1,0-3.33l-2.32,2.19a18.42,18.42,0,0,1-6.39,4.32,3.6,3.6,0,0,1-3.61-.49q-1.06-.79-2.11-1.62A4,4,0,0,1,304.39,32,20.44,20.44,0,0,1,308,24.32c.67-.94,1.4-1.83,2.08-2.83a13.43,13.43,0,0,1-7.73.45,6.82,6.82,0,0,0-.07.94A19.51,19.51,0,0,1,300.13,33a21.91,21.91,0,0,1-3.3,5,4.15,4.15,0,0,1-4.54,1.36,25.79,25.79,0,0,1-3.88-1.58A2.44,2.44,0,0,1,287,35.59a2.27,2.27,0,0,1,0-.91l-2.4,2a3.06,3.06,0,0,1-3.1.87,21.29,21.29,0,0,1-3.68-1.81,2.15,2.15,0,0,1-.72-2.64C278,30,279,26.91,280,23.82a56.9,56.9,0,0,0,2.73-9.38,1.7,1.7,0,0,1,1.52-1.59,11.16,11.16,0,0,1,3.34,0c1.48.31,1.72,1.35,1.1,2.73-.93,2.05-1.74,4.16-2.5,6.28-.94,2.64-1.78,5.32-2.66,8-.09.27-.14.55-.2.83Zm25.81,3.4a4.2,4.2,0,0,0,2.34-1.34c1.5-1.3,3-2.63,4.49-3.91,3.25-2.75,6.43-5.55,8.51-9.36a9.83,9.83,0,0,1,.84-1.08c.28-.37.89-.74.44-1.21-.19-.2-.94-.06-1.3.15-2.13,1.25-4.3,2.45-6.31,3.87a26.6,26.6,0,0,0-8.61,10.28A3.31,3.31,0,0,0,309.33,34.17Z"/><path class="cls-1" d="M169.22,34.65c-1.17,1.1-2.27,2.2-3.45,3.2-2.54,2.15-4.85,2.15-8.05.13a4.8,4.8,0,0,1-2.4-4.89,19.6,19.6,0,0,1,.81-3.92c2.3-6.93,5.81-13.28,9.34-19.63a49.91,49.91,0,0,0,3.76-7.2A3.06,3.06,0,0,1,172.72,0a8.17,8.17,0,0,0,1.1,0c2.3,0,2.77,1.87,2.41,3.31a5.12,5.12,0,0,1-.7,1.48c-2.89,4.52-5.84,9-8.7,13.56a62.24,62.24,0,0,0-5.33,11.32,25.41,25.41,0,0,0-.87,4.28,1.7,1.7,0,0,0,0,.54c.12.84.41,1,1.06.48.88-.7,1.68-1.51,2.52-2.25,1.21-1.06,2.43-2.11,3.64-3.17a1,1,0,0,0,.29-.52,21.73,21.73,0,0,1,4.23-9.33,54.27,54.27,0,0,1,5.65-6.58c2.62-2.48,5.85-2.44,9.1-1.25A3,3,0,0,1,189,14.64a7,7,0,0,1-.62,3.56c-1,2.74-3.07,4.74-5,6.85a39.41,39.41,0,0,1-9,7.63.77.77,0,0,0-.3,1.15,2,2,0,0,0,2.5,1.13,13.94,13.94,0,0,0,4.89-2.63c1.69-1.25,3.26-2.67,4.91-4a19,19,0,0,1,2.12-1.43,2.08,2.08,0,0,1,2.18,0,1.84,1.84,0,0,1,.45,2.82,42.74,42.74,0,0,1-10.71,8.65,6,6,0,0,1-5.35.52c-1.78-.68-3.66-1.24-4.94-2.83C169.82,35.62,169.53,35.12,169.22,34.65Zm5.32-7.91a2,2,0,0,0,.48-.23c3.16-2.88,6.2-5.85,8.07-9.79a5.24,5.24,0,0,0,.24-1.12C180.78,16.19,174.49,24.26,174.54,26.74Z"/><path class="cls-1" d="M230.78,16.91c.33-.62.63-1.21,1-1.79a2.8,2.8,0,0,1,2.92-1.46,3,3,0,0,1,2.84,2.22,1.55,1.55,0,0,1-.65,1.78,5.85,5.85,0,0,0-2.07,3.53c-.86,3-1.87,6-2.78,9-.33,1.08-.57,2.18-.81,3.28a14.15,14.15,0,0,0-.15,1.57,4.69,4.69,0,0,0,.8-.55c3.49-4,7.23-7.8,9.47-12.72.25-.55.46-1.13.72-1.68a2.57,2.57,0,0,1,3.61-1.25l1,.49c1.24.63,1.5,1.32.94,2.61-.68,1.6-1.42,3.17-2,4.79a34.72,34.72,0,0,0-2.07,9.07,7.79,7.79,0,0,0,.61,3.93c.32.75.6,1.58,0,2.24a2,2,0,0,1-2.25.14,16.16,16.16,0,0,1-2.51-1.3,1.42,1.42,0,0,1-.59-.88c-.2-1.28-.33-2.58-.46-3.87a6.89,6.89,0,0,1,.05-1.05l-.19-.1c-.25.24-.5.48-.76.71-1.16,1-2.28,2.11-3.48,3.1a3.1,3.1,0,0,1-3.19.58,22.4,22.4,0,0,1-3.37-1.56,2.91,2.91,0,0,1-1.29-2.5,17.64,17.64,0,0,1,.87-5.95c.81-2.81,1.61-5.62,2.43-8.52l-.69.11a20.91,20.91,0,0,1-2.71.38,1.17,1.17,0,0,0-1.27,1c-.91,2.71-1.76,5.45-2.86,8.09a19.07,19.07,0,0,1-5.15,6.82c-2.05,1.82-3.66,1.9-6.11.68a7.16,7.16,0,0,1-4.12-6.7,14.69,14.69,0,0,1,1.37-6.84,39.15,39.15,0,0,1,6.29-9.5,6.69,6.69,0,0,1,4.3-2.55c1.82-.19,4.39.95,5,2.83s1,1.9,2.85,1.86C227.71,16.88,229.23,16.91,230.78,16.91Zm-12.29.3a6.63,6.63,0,0,0-.92.94c-1.35,2.06-2.76,4.09-4,6.24a16.2,16.2,0,0,0-2.31,6.49,4.27,4.27,0,0,0,.56,2.81c.35.54.75.57,1.2.14a3.23,3.23,0,0,0,.47-.56c1-1.61,2.13-3.19,3.09-4.85a18.23,18.23,0,0,0,2.83-9.23A2.27,2.27,0,0,0,218.49,17.21Z"/><path class="cls-1" d="M31.67,35c-1.14,1.05-2.24,2.16-3.43,3.15a5.62,5.62,0,0,1-7.93-1,3.93,3.93,0,0,1-.67-1.84,16.64,16.64,0,0,1,1-6.47l2.33-8.12c-.34.08-.61.16-.89.2a21.37,21.37,0,0,1-2.62.33c-.69,0-.94.3-1.14.91-.87,2.63-1.69,5.29-2.73,7.85a19.53,19.53,0,0,1-5.11,7c-2.22,2-3.82,2.12-6.47.76S.13,34,0,31A14,14,0,0,1,1.56,24,35.57,35.57,0,0,1,4,19.57,51.11,51.11,0,0,1,8.49,14a5.09,5.09,0,0,1,6.1-1.34,3.64,3.64,0,0,1,2.26,2.24c.08.26.22.5.32.76a1.92,1.92,0,0,0,2.09,1.28c1.7-.07,3.41,0,5.17-.16.27,0,.5-.88.74-1.37a2.84,2.84,0,0,1,2.76-1.78,3.06,3.06,0,0,1,3,1.83,1.55,1.55,0,0,1-.44,2.12,6.33,6.33,0,0,0-2.16,3.79c-1,3.43-2.12,6.81-3.14,10.23a32.22,32.22,0,0,0-.62,3.18l.25.13a3.12,3.12,0,0,0,.62-.44c3.3-3.8,6.85-7.4,9.11-12,.36-.74.67-1.5,1-2.26a2.57,2.57,0,0,1,3.76-1.35l.66.33c1.58.77,1.74,1.43,1,3.07a70.63,70.63,0,0,0-2.72,7.07,51.54,51.54,0,0,0-1.24,6.37,7.16,7.16,0,0,0,.6,4c.32.75.6,1.58-.06,2.23a2,2,0,0,1-2.25.12,16.69,16.69,0,0,1-2.51-1.3,1.46,1.46,0,0,1-.58-.89c-.21-1.13-.36-2.27-.48-3.42a9.72,9.72,0,0,1,.07-1.5ZM12.11,17.22a7.35,7.35,0,0,0-.87.85,39.4,39.4,0,0,0-4.9,8.11,28.74,28.74,0,0,0-1.41,4.69,3.63,3.63,0,0,0,.52,2.81c.31.48.68.62,1.13.21a3.44,3.44,0,0,0,.59-.69c1-1.61,2.13-3.2,3.09-4.86A18,18,0,0,0,13,19.2,2.29,2.29,0,0,0,12.11,17.22Z"/><path class="cls-1" d="M341.65,34.23c-.29.19-.6.37-.88.58-.62.44-1.22.92-1.86,1.33a6.11,6.11,0,0,1-7.76-1.5,3.69,3.69,0,0,1-.48-2.08,30.21,30.21,0,0,1,2.08-9.15c1-3,2.18-6,3.27-8.93a2.44,2.44,0,0,1,2.74-1.78,9.63,9.63,0,0,1,1.62.28,2,2,0,0,1,1.54,2.93A3.61,3.61,0,0,1,341.4,17c-1.65,2.05-2.35,4.53-3.15,7s-1.44,4.66-2.13,7a11,11,0,0,0-.23,1.48l.24.18A12.67,12.67,0,0,0,338.4,31c2.84-3.06,6-5.85,8.11-9.52.74-1.29,1.29-2.69,1.92-4,.18-.39.32-.79.53-1.16a1.63,1.63,0,0,1,2.15-.86c.58.17,1.17.32,1.76.44a2.07,2.07,0,0,1,1.69,2.85,5.55,5.55,0,0,1-.79,1.64c-2.67,3.44-4.06,7.48-5.49,11.5-.75,2.09-1.51,4.18-2.27,6.29a3,3,0,0,0,.41.3c1.26.61,1.42,1.16.67,2.35-.9,1.42-1.89,2.78-2.67,4.26a43.27,43.27,0,0,0-3.84,12.16,6.25,6.25,0,0,1-1.43,3.31,3.23,3.23,0,0,1-1.44.88,9.24,9.24,0,0,1-2.36.22,2.21,2.21,0,0,1-2.44-2.55,13.44,13.44,0,0,1,1-3.95c1.12-2.56,2.46-5,3.67-7.56a20.75,20.75,0,0,0,1.05-2.71c1-3.11,1.92-6.23,2.88-9.35.11-.37.21-.74.31-1.12Z"/><path class="cls-1" d="M77,33.34c-.4.69-.71,1.17-1,1.68a85.24,85.24,0,0,0-5.61,15.35c-.15.58-.14,1.21-.28,1.8-.07.29-.25.72-.47.79a7.48,7.48,0,0,1-2.47.53,2.63,2.63,0,0,1-2.5-3.69c1.9-5.47,3.88-10.91,5.82-16.36a129.76,129.76,0,0,0,5.27-17.11L76,15a2.63,2.63,0,0,1,2.71-2.45l.37,0c2.22,0,3,.92,2.55,3.07-.22,1-.49,2.05-.74,3.07l.23.13c.23-.22.44-.44.68-.65,1.29-1.15,2.56-2.34,3.89-3.45a3.1,3.1,0,0,1,3.38-.35,20.13,20.13,0,0,1,3.2,1.74c1.48,1,1.51,2.58,1.3,4.13A36.47,36.47,0,0,1,88.5,34a20.9,20.9,0,0,1-2.77,3.38c-.85.92-2,.76-3.1.54a7.44,7.44,0,0,1-4.3-2.76C77.91,34.62,77.53,34.08,77,33.34Zm10.91-14a1.36,1.36,0,0,0-.39.06,4.37,4.37,0,0,0-.52.38,31.55,31.55,0,0,0-6.4,7.47,2.33,2.33,0,0,0-.34,1.12,7.42,7.42,0,0,0,1.47,4.52c.33.47.7.46,1,0a10.72,10.72,0,0,0,.85-1.18A39,39,0,0,0,87.44,21.4C87.61,20.73,87.72,20,87.87,19.32Z"/><path class="cls-1" d="M257.18,20c.59-.4,1-.74,1.48-1a43.2,43.2,0,0,1,4.13-2.34,5.55,5.55,0,0,1,6,1,1.74,1.74,0,0,1,.63,2,2.29,2.29,0,0,1-1.86,1.8,2.59,2.59,0,0,1-1.26-.11,3.11,3.11,0,0,0-2.78.3c-4.39,2.32-8.08,5.39-10.36,9.88-.73,1.42-1.07,3-1.68,4.53a9.1,9.1,0,0,1-1.33,2.34,1.81,1.81,0,0,1-2.49.21,8.25,8.25,0,0,1-1.39-1.32,2.81,2.81,0,0,1-.33-3.48,2.36,2.36,0,0,1,.12-.25c2.72-3.67,3.62-8.08,4.94-12.32.28-.9.5-1.82.72-2.74a2.35,2.35,0,0,0-.15-2,.86.86,0,0,1,.44-1.24,3.86,3.86,0,0,1,3.93-.14,2.86,2.86,0,0,1,1.24,2.33A19.8,19.8,0,0,1,257.18,20Z"/><path class="cls-1" d="M50.76,20c.43-.29.71-.5,1-.68a48.18,48.18,0,0,1,4.92-2.77,5.31,5.31,0,0,1,5.63,1.07,1.7,1.7,0,0,1,.62,2.19,2.22,2.22,0,0,1-2,1.69,3.11,3.11,0,0,1-1.16-.17,2.84,2.84,0,0,0-2.45.23C52.8,23.89,49,27,46.71,31.58c-.71,1.4-1,3-1.64,4.44a9.25,9.25,0,0,1-1.31,2.36,1.81,1.81,0,0,1-2.56.21,9,9,0,0,1-1.43-1.4,2.75,2.75,0,0,1-.32-3.25,4,4,0,0,1,.36-.64,22.7,22.7,0,0,0,3.46-7.71c.71-2.4,1.38-4.8,2.06-7.21a2.11,2.11,0,0,0-.16-1.84c-.3-.47-.07-.93.39-1.26,1-.72,3-.9,4-.09a4.38,4.38,0,0,1,1.18,2.16A11.45,11.45,0,0,1,50.76,20Z"/><path class="cls-1" d="M193.92,31.71A3,3,0,0,1,196.48,33c1.59,2.17,1.76,1.63.11,4.12-1.84,2.77-3.66,5.55-5.49,8.32a3.28,3.28,0,0,1-4.89,1,1.79,1.79,0,0,1-.68-2.08,6.75,6.75,0,0,1,.41-.82q2.85-5.11,5.72-10.21C192.15,32.48,192.64,31.56,193.92,31.71Z"/></g></g></svg>
