<svg xmlns="http://www.w3.org/2000/svg" viewBox="0 0 40 20"><defs><style>.a{fill:none;}.b{fill:#00247d;}.c{fill:#cc142b;}.d{opacity:0.15;}</style></defs><title>flag_en</title><polygon class="a" points="23.685 6.667 37.019 0 35.528 0 23.333 6.097 23.333 0 22 0 22 8 40 8 40 6.667 31.139 6.667 40 2.236 40 0 40 0 26.667 6.667 23.685 6.667"/><polygon class="a" points="22 20 23.333 20 23.333 13.903 35.528 20 40 20 40 20 26.667 13.333 29.648 13.333 40 18.509 40 17.764 31.139 13.333 40 13.333 40 12 22 12 22 20"/><polygon class="a" points="18 0 16.667 0 16.667 6.097 4.472 0 0 0 13.333 6.667 10.352 6.667 0 1.491 0 2.236 8.861 6.667 0 6.667 0 8 18 8 18 0"/><polygon class="a" points="0 12 0 13.333 8.861 13.333 0 17.764 0 20 13.333 13.333 16.315 13.333 2.981 20 4.472 20 16.667 13.903 16.667 20 18 20 18 12 0 12"/><polygon class="b" points="0 2.236 0 6.667 8.861 6.667 0 2.236"/><polygon class="b" points="16.667 0 4.472 0 16.667 6.097 16.667 0"/><polygon class="b" points="0 13.333 0 17.764 8.861 13.333 0 13.333"/><polygon class="b" points="35.528 0 23.333 0 23.333 6.097 35.528 0"/><polygon class="b" points="40 17.764 40 13.333 31.139 13.333 40 17.764"/><polygon class="b" points="23.333 20 35.528 20 23.333 13.903 23.333 20"/><polygon class="b" points="40 6.667 40 2.236 31.139 6.667 40 6.667"/><polygon class="b" points="4.472 20 16.667 20 16.667 13.903 4.472 20"/><polygon class="c" points="26.667 13.333 40 20 40 18.509 29.648 13.333 26.667 13.333"/><polygon class="c" points="23.685 6.667 26.667 6.667 40 0 37.019 0 23.685 6.667"/><polygon class="c" points="13.333 6.667 0 0 0 0 0 1.491 10.352 6.667 13.333 6.667"/><polygon class="c" points="13.333 13.333 0 20 0 20 2.981 20 16.315 13.333 13.333 13.333"/><polygon class="c" points="22 0 18 0 18 8 0 8 0 12 18 12 18 20 22 20 22 12 40 12 40 8 22 8 22 0"/><g class="d"><path d="M39,1V19H1V1H39m1-1H0V20H40V0Z"/></g></svg>