<svg xmlns="http://www.w3.org/2000/svg" viewBox="0 0 36 36"><defs><style>.a{fill:none;}.b,.shape{fill:#d2741e;}</style></defs><title>icon_gr-height</title>
    <rect class="a" width="36" height="36"/>
    <rect class="shape" x="16.06" y="8.36" width="3.64" height="4.31"/>
    <rect class="shape" x="16.06" y="13.72" width="3.64" height="2.9"/>
    <path class="b" d="M36,33.06H20.84a1.66,1.66,0,0,0,.76-1.4V29.55H18.27v2.11a1.66,1.66,0,0,0,.76,1.4H16.75a1.66,1.66,0,0,0,.76-1.4V29.55H14.18v2.11a1.66,1.66,0,0,0,.76,1.4H3.88v-.4a.4.4,0,0,0-.4-.4V29.58a.4.4,0,0,0,.4-.4v-.4H36V26.64H21.6V23.17H18.27v3.48h-.76V23.17H14.18v3.48H3.88v-.4a.4.4,0,0,0-.4-.4V23.13a.4.4,0,0,0,.4-.4v-.36H36V20.23H25.85a1.49,1.49,0,0,0,.7-1.26V13.42a1.49,1.49,0,0,0-.79-1.3L25.68,12,21.23,8.71a1.42,1.42,0,0,0-.48-.22v8.13h.85v-3.9l2,1.47V19a1.49,1.49,0,0,0,.7,1.26H21.6V19.16h0V17.68h0l-2.7,2.55H16.92l-2.7-2.55h0v1.48h0v1.07H3.88v-.44a.4.4,0,0,0-.4-.4H1.34a.4.4,0,0,0-.4.4v2.94a.4.4,0,0,0,.4.4v2.71a.4.4,0,0,0-.4.4v2.94a.4.4,0,0,0,.4.4v2.67a.4.4,0,0,0-.4.4V35.6a.4.4,0,0,0,.4.4H3.48a.4.4,0,0,0,.4-.4v-.4H36Z"/>
    <polygon class="shape" points="17.88 19.7 20.02 17.68 15.74 17.68 17.88 19.7"/>
    <path class="b" d="M15,16.62V8.53a1.54,1.54,0,0,0-.3.2h0l-4,3H5.43a1.49,1.49,0,0,0-1.49,1.49h0a1.49,1.49,0,0,0,1.49,1.49h5.64a1.47,1.47,0,0,0,1-.29l2.15-1.6v3.78Z"/>
    <path class="b" d="M19.88,2.51a2.82,2.82,0,0,0-4,0,2.73,2.73,0,0,0-.83,2,2.73,2.73,0,0,0,.83,2,2.82,2.82,0,0,0,4,0,2.78,2.78,0,0,0,.83-2A2.7,2.7,0,0,0,19.88,2.51Z"/>
</svg>