<svg xmlns="http://www.w3.org/2000/svg" viewBox="0 0 36 36"><defs><style>.a{fill:#d2741e;}.b{fill:none;}</style></defs><title>icon_gr-drugs</title><path class="a" d="M27.51,16.12v7.72l-8.18-8.17a3.72,3.72,0,0,1,2.54-3.08V7.33h0V7.16a.87.87,0,0,1,.87-.87h1.34a.87.87,0,0,1,.87.87v.17h0V12.6A3.71,3.71,0,0,1,27.51,16.12ZM19.3,28.35a1.39,1.39,0,0,0,1.38,1.39h5.44L19.3,22.93Zm-6.83-2.63H10.12a1.66,1.66,0,0,0,0,3.33h2.35Zm3-.69a2.36,2.36,0,0,1,0,4.71H10.12a2.36,2.36,0,0,1,0-4.71H15.5m-4.66-4.78a2.23,2.23,0,0,0,.77,2.84l1.94-3.95a2.17,2.17,0,0,0-.73-.13,2.21,2.21,0,0,0-2,1.24m-.61,1.86A2.75,2.75,0,0,1,12,18.63a2.69,2.69,0,0,1,1.84,0h0l.23.12.23.12h0a2.76,2.76,0,0,1,1,3.55A2.73,2.73,0,0,1,12.82,24a2.69,2.69,0,0,1-1-.18h0l-.23-.12h0l-.23-.12h0a2.72,2.72,0,0,1-1.15-1.45M4.59,20A2.2,2.2,0,0,0,7.3,21.15l-1.93-4a2.19,2.19,0,0,0-.55.51A2.23,2.23,0,0,0,4.59,20m1.1,1.62a2.75,2.75,0,0,1-.55-4.93h0l.24-.12.23-.12h0A2.72,2.72,0,0,1,9,17.85a2.76,2.76,0,0,1-.29,2.88,2.71,2.71,0,0,1-.73.66H8l-.24.12h0l-.23.12h0a2.69,2.69,0,0,1-1.84,0m29.47,1.79A18,18,0,0,1,2,26.28a18,18,0,1,1,33.13-2.84ZM4.9,7.23A17,17,0,0,0,28.69,31.16ZM31.1,28.77A17,17,0,0,0,7.31,4.83Z"/><rect class="b" width="36" height="36"/></svg>