<svg xmlns="http://www.w3.org/2000/svg" viewBox="0 0 36 36"><defs><style>.a{fill:#d2741e;}.b{fill:none;}</style></defs><title>icon_gr-materials</title><path class="a" d="M36,25.07v3.16a.77.77,0,0,1-.76.77H.76A.77.77,0,0,1,0,28.23V25.07a.77.77,0,0,1,.76-.77H12.3v.05A1.63,1.63,0,0,0,13.92,26h.33a1.63,1.63,0,0,0,1.62-1.63v-.05H35.24A.77.77,0,0,1,36,25.07ZM15.78,19.34H15.3L17.54,8.79H15.11L12.87,19.34h-.48a.29.29,0,0,0-.29.29V21.1a.29.29,0,0,0,.29.29h3.39a.29.29,0,0,0,.29-.29V19.62A.29.29,0,0,0,15.78,19.34Zm11.46-.75h0v0c0-.11,0-.21,0-.32l0-.07c0-.09,0-.17-.06-.25l0-.09L27,17.6l0-.1-.09-.2,0-.09-.15-.26-.06-.09-.1-.14,0,0,0,0h0l-.11-.12-.05-.06-.13-.12-.1-.09,0,0h0l0,0-.2-.14,0,0h0l-.19-.1,0,0h0l-.21-.08,0,0h0l-.22,0h-.07l-.29,0-.28,0-.08,0-.19,0-.08,0-.18.06-.07,0-.18.09-.06,0-.19.12,0,0-.19.16,0,0-.19.19v0l-.07.08h0l-.12.15A3.72,3.72,0,0,0,22,19c0,1.79,1.17,3.25,2.62,3.25l.26,0,.09,0,.16,0,.1,0,.14,0,.11,0,.12-.06,0,0,0,0,.27-.17,0,0a2.74,2.74,0,0,0,.26-.23l.07-.07a3,3,0,0,0,.22-.27l.05-.08.16-.25.06-.1a3.52,3.52,0,0,0,.15-.32l0-.13c0-.1.07-.2.1-.3l0-.14q0-.16.06-.32l0-.15V19.3c0-.11,0-.23,0-.34S27.25,18.71,27.24,18.58Zm-2.31-5.86c0,1.79,1.17,3.25,2.62,3.25s2.62-1.46,2.62-3.25S29,9.47,27.55,9.47,24.93,10.93,24.93,12.72Zm3,6.24c0,1.79,1.17,3.25,2.62,3.25s2.62-1.46,2.62-3.25S32,15.7,30.52,15.7,27.9,17.16,27.9,19ZM27.55,8.79H18.13L16,18.8a.86.86,0,0,1,.64.83V21.1a.86.86,0,0,1-.76.85v.94h8.78c-1.82,0-3.29-1.76-3.29-3.93a4.45,4.45,0,0,1,.63-2.3,4,4,0,0,1,.23-.34v0a3.45,3.45,0,0,1,.89-.82l0,0,.29-.15.1,0,.25-.09.12,0,.25-.06.11,0,.38,0,.25,0h0a4.45,4.45,0,0,1-.63-2.31C24.26,10.55,25.73,8.79,27.55,8.79ZM12.3,22.07v-.12a.86.86,0,0,1-.76-.85V19.62a.86.86,0,0,1,.86-.86h0l2.12-10h-6c-1.82,0-3.29,1.76-3.29,3.93A4.44,4.44,0,0,0,5.86,15H5.62C3.8,15,2.33,16.78,2.33,19s1.47,3.93,3.29,3.93H12.3Zm.57-.12v2.4a1.06,1.06,0,0,0,1,1.07h.33a1.06,1.06,0,0,0,1-1.07V22.07h0V22Z"/><rect class="b" width="36" height="36"/></svg>